<svg width="20" height="20" viewBox="0 0 20 20" fill="none" xmlns="http://www.w3.org/2000/svg">
<g id="solar:stopwatch-linear">
<g id="Group">
<path id="Vector" d="M17.5 10.8335C17.5 11.8184 17.306 12.7937 16.9291 13.7036C16.5522 14.6136 15.9997 15.4404 15.3033 16.1368C14.6069 16.8332 13.7801 17.3857 12.8701 17.7626C11.9602 18.1395 10.9849 18.3335 10 18.3335C9.01509 18.3335 8.03982 18.1395 7.12987 17.7626C6.21993 17.3857 5.39314 16.8332 4.6967 16.1368C4.00026 15.4404 3.44781 14.6136 3.0709 13.7036C2.69399 12.7937 2.5 11.8184 2.5 10.8335C2.5 8.84437 3.29018 6.93672 4.6967 5.5302C6.10322 4.12367 8.01088 3.3335 10 3.3335C11.9891 3.3335 13.8968 4.12367 15.3033 5.5302C16.7098 6.93672 17.5 8.84437 17.5 10.8335Z" stroke="white" stroke-width="1.5"/>
<path id="Vector_2" d="M10 10.8333V7.5" stroke="white" stroke-width="1.5" stroke-linecap="round" stroke-linejoin="round"/>
<path id="Vector_3" d="M8.33325 1.66675H11.6666" stroke="white" stroke-width="1.5" stroke-linecap="round"/>
</g>
</g>
</svg>
