<svg width="24" height="24" viewBox="0 0 24 24" fill="none" xmlns="http://www.w3.org/2000/svg">
<g id="solar:pie-chart-2-outline">
<g id="Group">
<path id="Vector" fill-rule="evenodd" clip-rule="evenodd" d="M17.206 1.85601C16.143 1.43701 15.116 1.72101 14.389 2.36801C13.679 2.99801 13.25 3.97001 13.25 5.00001V9.00001C13.25 9.96701 14.034 10.75 15 10.75H19C20.03 10.75 21.002 10.32 21.633 9.61101C22.279 8.88401 22.563 7.85701 22.143 6.79401C21.7018 5.67689 21.036 4.66224 20.1868 3.81285C19.3375 2.96347 18.323 2.29744 17.206 1.85601ZM14.75 9.00001V5.00001C14.75 4.37301 15.015 3.81801 15.386 3.48801C15.739 3.17401 16.177 3.06301 16.656 3.25201C17.5817 3.6179 18.4225 4.16984 19.1263 4.87369C19.8302 5.57753 20.3821 6.41831 20.748 7.34401C20.937 7.82301 20.826 8.26101 20.512 8.61401C20.182 8.98501 19.627 9.25001 19 9.25001H15C14.9337 9.25001 14.8701 9.22367 14.8232 9.17678C14.7763 9.1299 14.75 9.06631 14.75 9.00001Z" fill="black" fill-opacity="0.2"/>
<path id="Vector_2" fill-rule="evenodd" clip-rule="evenodd" d="M10.995 2.87001C10.385 2.47401 9.79501 2.36001 9.14501 2.47401C8.59501 2.57001 8.00501 2.83401 7.37801 3.11501L7.31101 3.14501C5.79512 3.82393 4.46693 4.86108 3.44077 6.16717C2.41461 7.47325 1.72123 9.00915 1.42031 10.6426C1.11939 12.2761 1.21994 13.9583 1.71333 15.5443C2.20671 17.1303 3.07813 18.5727 4.25258 19.7472C5.42702 20.9218 6.86931 21.7933 8.45529 22.2868C10.0413 22.7803 11.7234 22.881 13.3569 22.5802C14.9905 22.2794 16.5264 21.5861 17.8326 20.56C19.1387 19.534 20.176 18.2058 20.855 16.69L20.885 16.622C21.166 15.995 21.43 15.405 21.526 14.854C21.639 14.206 21.526 13.615 21.13 13.004C20.704 12.347 20.12 12.025 19.406 11.879C18.772 11.749 17.98 11.749 17.072 11.75H15.5C14.536 11.75 13.888 11.748 13.405 11.684C12.944 11.621 12.746 11.514 12.616 11.384C12.486 11.254 12.379 11.056 12.316 10.594C12.252 10.112 12.25 9.46401 12.25 8.50001V6.92801C12.25 6.02001 12.25 5.22801 12.12 4.59401C11.975 3.88001 11.653 3.29601 10.995 2.87001ZM7.92401 4.51401C8.64301 4.19201 9.06001 4.01101 9.40401 3.95101C9.66901 3.90501 9.87801 3.93301 10.18 4.12901C10.434 4.29401 10.569 4.49001 10.651 4.89401C10.746 5.36101 10.75 5.99801 10.75 7.00001V8.55201C10.75 9.45001 10.75 10.2 10.83 10.794C10.914 11.422 11.1 11.989 11.556 12.444C12.011 12.9 12.578 13.086 13.206 13.17C13.8 13.25 14.55 13.25 15.448 13.25H17C18.002 13.25 18.639 13.254 19.106 13.349C19.51 13.431 19.706 13.566 19.871 13.82C20.067 14.122 20.095 14.331 20.049 14.597C19.989 14.94 19.808 15.357 19.486 16.077C18.5719 18.1162 16.9126 19.7287 14.848 20.584C12.7239 21.4632 10.3392 21.4712 8.20925 20.6062C6.07934 19.7412 4.37538 18.0728 3.46573 15.9616C2.55608 13.8504 2.51381 11.466 3.34807 9.32383C4.18233 7.1817 5.82608 5.45392 7.92401 4.51401Z" fill="black" fill-opacity="0.2"/>
</g>
</g>
</svg>
