<svg width="24" height="24" viewBox="0 0 24 24" fill="none" xmlns="http://www.w3.org/2000/svg">
<g id="solar:pie-chart-2-bold">
<path id="Vector" d="M6.222 4.60103C6.66458 4.3054 7.13122 4.0475 7.617 3.83003C8.989 3.21503 9.675 2.90803 10.587 3.50003C11.5 4.09003 11.5 5.06003 11.5 7.00003V8.50003C11.5 10.386 11.5 11.328 12.086 11.914C12.672 12.5 13.614 12.5 15.5 12.5H17C18.94 12.5 19.91 12.5 20.5 13.412C21.092 14.325 20.785 15.011 20.17 16.382C19.291 18.3459 17.7711 19.9532 15.8594 20.9406C13.9476 21.928 11.7573 22.237 9.647 21.817C7.80426 21.4505 6.1116 20.5457 4.78304 19.2172C3.45448 17.8886 2.5497 16.196 2.1831 14.3532C1.8165 12.5105 2.00455 10.6004 2.72346 8.86456C3.44238 7.12869 4.65987 5.64498 6.222 4.60103Z" fill="#F75A28"/>
<path id="Vector_2" d="M21.446 7.06901C21.0424 6.04756 20.4334 5.11981 19.6568 4.34319C18.8802 3.56658 17.9525 2.95762 16.931 2.55401C15.389 1.94701 14 3.34401 14 5.00001V9.00001C14 9.26523 14.1054 9.51958 14.2929 9.70712C14.4804 9.89465 14.7348 10 15 10H19C20.657 10 22.053 8.61001 21.446 7.06901Z" fill="#F75A28"/>
</g>
</svg>
