<svg width="24" height="24" viewBox="0 0 24 24" fill="none" xmlns="http://www.w3.org/2000/svg">
<g id="ph:sneaker-move-fill" clip-path="url(#clip0_80_993)">
<path id="Vector" d="M24 18.7884C23.9921 19.1803 23.8304 19.5533 23.5497 19.8268C23.269 20.1003 22.8919 20.2523 22.5 20.25H13.8103C13.4148 20.2508 13.0352 20.0947 12.7547 19.8159L2.69813 10.0706L2.68969 10.0622C2.4086 9.78092 2.2507 9.39953 2.2507 9.00188C2.2507 8.60422 2.4086 8.22284 2.68969 7.94157L8.68969 1.93032L8.70375 1.91719C8.98619 1.64509 9.36444 1.49519 9.7566 1.49993C10.1488 1.50466 10.5233 1.66366 10.7991 1.9425L11.5688 2.71875C11.8321 2.98243 11.9878 3.33467 12.0056 3.70688C12.1116 5.84719 13.5909 7.29375 15.8672 7.48125C16.2417 7.51339 16.5909 7.68388 16.8465 7.95947C17.1022 8.23506 17.246 8.59599 17.25 8.97188V10.125C17.25 10.2245 17.2105 10.3198 17.1402 10.3902C17.0698 10.4605 16.9745 10.5 16.875 10.5H14.25C14.1472 10.4998 14.0454 10.5207 13.951 10.5615C13.8566 10.6022 13.7716 10.6619 13.7013 10.7369C13.631 10.8119 13.5768 10.9006 13.5422 10.9974C13.5075 11.0942 13.4932 11.1971 13.5 11.2997C13.5168 11.4925 13.6058 11.6718 13.7493 11.8017C13.8927 11.9315 14.0799 12.0024 14.2734 12H16.8984C16.991 11.9994 17.0805 12.0331 17.1497 12.0945C17.219 12.156 17.263 12.2408 17.2734 12.3328C17.2983 12.5612 17.3499 12.7859 17.4272 13.0022C17.4466 13.0586 17.4522 13.1187 17.4437 13.1777C17.4352 13.2367 17.4127 13.2929 17.3781 13.3414C17.3436 13.39 17.2979 13.4296 17.245 13.4571C17.1921 13.4845 17.1334 13.4989 17.0737 13.4991H15C14.8972 13.4988 14.7954 13.5198 14.701 13.5605C14.6066 13.6013 14.5216 13.661 14.4513 13.736C14.381 13.811 14.3268 13.8997 14.2922 13.9965C14.2575 14.0933 14.2432 14.1962 14.25 14.2988C14.2666 14.4916 14.3555 14.671 14.499 14.801C14.6425 14.9309 14.8299 15.0017 15.0234 14.9991H20.25C20.7458 14.999 21.2367 15.0973 21.6942 15.2882C22.1518 15.4792 22.5669 15.7589 22.9157 16.1113C23.2644 16.4637 23.5398 16.8818 23.7259 17.3413C23.9121 17.8008 24.0052 18.2927 24 18.7884ZM6.75 16.5C6.75 16.3011 6.67098 16.1103 6.53033 15.9697C6.38968 15.829 6.19891 15.75 6 15.75H3C2.80109 15.75 2.61032 15.829 2.46967 15.9697C2.32902 16.1103 2.25 16.3011 2.25 16.5C2.25 16.6989 2.32902 16.8897 2.46967 17.0303C2.61032 17.171 2.80109 17.25 3 17.25H6C6.19891 17.25 6.38968 17.171 6.53033 17.0303C6.67098 16.8897 6.75 16.6989 6.75 16.5ZM9 18.75H4.5C4.30109 18.75 4.11032 18.829 3.96967 18.9697C3.82902 19.1103 3.75 19.3011 3.75 19.5C3.75 19.6989 3.82902 19.8897 3.96967 20.0303C4.11032 20.171 4.30109 20.25 4.5 20.25H9C9.19891 20.25 9.38968 20.171 9.53033 20.0303C9.67098 19.8897 9.75 19.6989 9.75 19.5C9.75 19.3011 9.67098 19.1103 9.53033 18.9697C9.38968 18.829 9.19891 18.75 9 18.75Z" fill="#F75A28"/>
</g>
<defs>
<clipPath id="clip0_80_993">
<rect width="24" height="24" fill="white"/>
</clipPath>
</defs>
</svg>
