<svg width="20" height="20" viewBox="0 0 20 20" fill="none" xmlns="http://www.w3.org/2000/svg">
<g id="solar:calendar-date-linear">
<g id="Group">
<path id="Vector" d="M1.66675 9.99992C1.66675 6.85742 1.66675 5.28575 2.64341 4.30992C3.61925 3.33325 5.19091 3.33325 8.33341 3.33325H11.6667C14.8092 3.33325 16.3809 3.33325 17.3567 4.30992C18.3334 5.28575 18.3334 6.85742 18.3334 9.99992V11.6666C18.3334 14.8091 18.3334 16.3808 17.3567 17.3566C16.3809 18.3333 14.8092 18.3333 11.6667 18.3333H8.33341C5.19091 18.3333 3.61925 18.3333 2.64341 17.3566C1.66675 16.3808 1.66675 14.8091 1.66675 11.6666V9.99992Z" stroke="white" stroke-width="1.2"/>
<path id="Vector_2" d="M5.8335 3.33325V2.08325M14.1668 3.33325V2.08325" stroke="white" stroke-width="1.2" stroke-linecap="round"/>
<path id="Vector_3" d="M7.5 12.0833L8.75 10.8333V14.1666" stroke="white" stroke-width="1.2" stroke-linecap="round" stroke-linejoin="round"/>
<path id="Vector_4" d="M2.0835 7.5H17.9168M10.8335 13.3333V11.6667C10.8335 11.4457 10.9213 11.2337 11.0776 11.0774C11.2339 10.9211 11.4458 10.8333 11.6668 10.8333C11.8878 10.8333 12.0998 10.9211 12.2561 11.0774C12.4124 11.2337 12.5002 11.4457 12.5002 11.6667V13.3333C12.5002 13.5543 12.4124 13.7663 12.2561 13.9226C12.0998 14.0789 11.8878 14.1667 11.6668 14.1667C11.4458 14.1667 11.2339 14.0789 11.0776 13.9226C10.9213 13.7663 10.8335 13.5543 10.8335 13.3333Z" stroke="white" stroke-width="1.2" stroke-linecap="round"/>
</g>
</g>
</svg>
