<svg width="15" height="15" viewBox="0 0 15 15" fill="none" xmlns="http://www.w3.org/2000/svg">
<g id="noto:coin" clip-path="url(#clip0_117_944)">
<path id="Vector" d="M7.49995 14.5242C11.2123 14.5242 14.2218 11.5147 14.2218 7.80235C14.2218 4.08996 11.2123 1.08047 7.49995 1.08047C3.78756 1.08047 0.778076 4.08996 0.778076 7.80235C0.778076 11.5147 3.78756 14.5242 7.49995 14.5242Z" fill="#D68F30"/>
<path id="Vector_2" d="M1.23511 9.54844V10.2352C1.30542 10.4168 1.38394 10.5961 1.46948 10.7695V9.54844H1.23511ZM2.00151 10.841V11.666C2.09526 11.7984 2.19253 11.9285 2.29448 12.0539V10.841H2.00151ZM3.01636 11.9191V12.8086C3.13003 12.9106 3.24722 13.0078 3.36792 13.1016V11.9191H3.01636ZM4.26558 12.7383V13.6945C4.38042 13.7578 4.49761 13.8176 4.61714 13.875V12.7383H4.26558ZM5.68237 13.2598V14.2723C5.79839 14.3051 5.91558 14.3344 6.03394 14.3613V13.2598H5.68237ZM7.34058 13.4402V14.5195C7.39331 14.5207 7.44605 14.5231 7.49995 14.5231C7.5644 14.5231 7.62886 14.5195 7.69214 14.5184V13.4402H7.34058ZM8.99878 13.2516V14.3531C9.11714 14.3262 9.23433 14.2957 9.35034 14.2629V13.2516H8.99878ZM10.4121 12.7231V13.8609C10.5316 13.8035 10.6488 13.7414 10.7636 13.677V12.7231H10.4121ZM11.6578 11.8969V13.0805C11.7784 12.9862 11.8957 12.8877 12.0093 12.7852V11.8969H11.6578ZM13.0183 10.8152H12.7253V12.0281C12.8273 11.9016 12.9257 11.7715 13.0183 11.6379V10.8152ZM13.78 9.51797H13.5457V10.7414C13.6312 10.5645 13.7097 10.3828 13.78 10.1988V9.51797Z" fill="#BC6F00"/>
<path id="Vector_3" d="M7.49995 13.9195C11.2123 13.9195 14.2218 10.91 14.2218 7.19764C14.2218 3.48525 11.2123 0.475769 7.49995 0.475769C3.78756 0.475769 0.778076 3.48525 0.778076 7.19764C0.778076 10.91 3.78756 13.9195 7.49995 13.9195Z" fill="#FFF176"/>
<path id="Vector_4" d="M7.5 13.3207C10.8817 13.3207 13.623 10.5793 13.623 7.19766C13.623 3.816 10.8817 1.07462 7.5 1.07462C4.11833 1.07462 1.37695 3.816 1.37695 7.19766C1.37695 10.5793 4.11833 13.3207 7.5 13.3207Z" fill="#F2BC1A"/>
<path id="Vector_5" d="M1.3652 7.43204C1.32185 6.62579 1.4613 5.80782 1.74255 5.04141C2.03552 4.27735 2.48435 3.57071 3.05036 2.97071C4.18708 1.76837 5.83708 1.0711 7.49997 1.0629C9.16286 1.07227 10.814 1.76837 11.9484 2.97188C12.5156 3.57071 12.9633 4.27852 13.2562 5.04141C13.5386 5.80899 13.6781 6.62579 13.6336 7.43204H13.6101C13.6078 6.62773 13.4486 5.83161 13.1414 5.08829C12.8336 4.34581 12.3842 3.67035 11.8183 3.09962C11.2521 2.52945 10.5791 2.0763 9.83786 1.76602C9.09684 1.45663 8.30181 1.29732 7.4988 1.29732C6.69579 1.29732 5.90075 1.45663 5.15974 1.76602C4.41847 2.0763 3.74553 2.52945 3.17927 3.09962C2.61297 3.67004 2.16354 4.34557 1.85622 5.08829C1.549 5.83161 1.38977 6.62773 1.38747 7.43204H1.3652Z" fill="#E08F00"/>
<path id="Vector_6" d="M7.49995 0.476959C3.78745 0.476959 0.778076 3.48633 0.778076 7.19883C0.778076 10.9113 3.78745 13.9207 7.49995 13.9207C11.2125 13.9207 14.2218 10.9113 14.2218 7.19883C14.2218 3.48633 11.2125 0.476959 7.49995 0.476959ZM7.49995 13.3219C4.11792 13.3219 1.3769 10.5809 1.3769 7.19883C1.3769 3.81563 4.11792 1.07462 7.49995 1.07462C10.882 1.07462 13.623 3.81563 13.623 7.19766C13.623 10.5797 10.882 13.3219 7.49995 13.3219Z" fill="#FFF176"/>
<path id="Vector_7" d="M4.45186 2.50195L4.60068 2.9625L5.08584 2.77734V2.9625L4.69326 3.24727L4.84326 3.52148V3.70781L4.45186 3.42305L4.05928 3.70781V3.52148L4.20928 3.24727L3.81787 2.9625V2.77734L4.30186 2.9625L4.45186 2.50195ZM2.5792 5.1457L2.7292 5.60625L3.21318 5.42109V5.60625L2.82178 5.89102L2.97178 6.16641V6.35156L2.5792 6.0668L2.18779 6.35156V6.16641L2.33779 5.89102L1.94521 5.60625V5.42109L2.43037 5.60625L2.5792 5.1457ZM2.52412 8.40469L2.67412 8.86523L3.15811 8.68008V8.86523L2.7667 9.15L2.9167 9.42539V9.61055L2.52412 9.32578L2.13272 9.61055V9.42539L2.28271 9.15L1.89014 8.86523V8.68008L2.37529 8.86523L2.52412 8.40469ZM4.52334 10.9922L4.67334 11.4527L5.15732 11.2676V11.4527L4.76592 11.7375L4.91592 12.0117V12.198L4.52334 11.9133L4.13193 12.198V12.0117L4.28193 11.7375L3.88936 11.4527V11.2676L4.37451 11.4527L4.52334 10.9922ZM10.5479 2.50195L10.3991 2.9625L9.91397 2.77734V2.9625L10.3065 3.24727L10.1565 3.52148V3.70781L10.5479 3.42305L10.9405 3.70781V3.52148L10.7905 3.24727L11.1819 2.9625V2.77734L10.6979 2.9625L10.5479 2.50195ZM12.4206 5.1457L12.2706 5.60625L11.7866 5.42109V5.60625L12.178 5.89102L12.028 6.16641V6.35156L12.4206 6.0668L12.812 6.35156V6.16641L12.662 5.89102L13.0546 5.60625V5.42109L12.5694 5.60625L12.4206 5.1457ZM12.4757 8.40469L12.3257 8.86523L11.8417 8.68008V8.86523L12.2331 9.15L12.0831 9.42539V9.61055L12.4757 9.32578L12.8671 9.61055V9.42539L12.7171 9.15L13.1097 8.86523V8.68008L12.6245 8.86523L12.4757 8.40469ZM10.4765 10.9922L10.3265 11.4527L9.84248 11.2676V11.4527L10.2339 11.7375L10.0839 12.0117V12.198L10.4765 11.9133L10.8679 12.198V12.0117L10.7179 11.7375L11.1104 11.4527V11.2676L10.6253 11.4527L10.4765 10.9922Z" fill="#D38200"/>
<path id="Vector_8" d="M10.4765 10.8058L10.6253 11.2664H11.1105L10.7179 11.5512L10.8679 12.0117L10.4765 11.7269L10.0839 12.0117L10.2339 11.5512L9.84253 11.2664H10.3265L10.4765 10.8058ZM12.4757 8.21952L12.6246 8.68007H13.1097L12.7171 8.96483L12.8671 9.42538L12.4757 9.14061L12.0832 9.42538L12.2332 8.96483L11.8417 8.68007H12.3257L12.4757 8.21952ZM12.4207 4.96053L12.5695 5.42108H13.0546L12.6621 5.70585L12.8121 6.16639L12.4207 5.88163L12.0281 6.16639L12.1781 5.70585L11.7867 5.42108H12.2707L12.4207 4.96053ZM10.548 2.31561L10.698 2.77616H11.182L10.7906 3.06093L10.9406 3.52147L10.548 3.23671L10.1566 3.52147L10.3066 3.06093L9.91401 2.77616H10.3992L10.548 2.31561Z" fill="#FFF176"/>
<path id="Vector_9" d="M7.50581 12.0117L7.65581 12.4723L8.13979 12.2871V12.4723L7.74839 12.757L7.89839 13.0324V13.2176L7.50581 12.9328L7.1144 13.2176V13.0324L7.2644 12.757L6.87183 12.4723V12.2871L7.35698 12.4723L7.50581 12.0117Z" fill="#D38200"/>
<path id="Vector_10" d="M7.50581 11.7656L7.65581 12.2262H8.13979L7.74839 12.5109L7.89839 12.9715L7.50581 12.6867L7.1144 12.9715L7.2644 12.5109L6.87183 12.2262H7.35698L7.50581 11.7656Z" fill="#FFF176"/>
<path id="Vector_11" d="M7.50581 1.51056L7.65581 1.97111L8.13979 1.78595V1.97111L7.74839 2.25587L7.89839 2.53126V2.71642L7.50581 2.43165L7.1144 2.71642V2.53126L7.2644 2.25587L6.87183 1.97111V1.78595L7.35698 1.97111L7.50581 1.51056Z" fill="#D38200"/>
<path id="Vector_12" d="M7.50576 1.32538L7.65576 1.78593H8.13975L7.74834 2.07069L7.89834 2.53124L7.50576 2.24647L7.11436 2.53124L7.26436 2.07069L6.87178 1.78593H7.35693L7.50576 1.32538ZM4.52334 10.8058L4.37451 11.2664H3.88936L4.28193 11.5512L4.13193 12.0117L4.52334 11.7269L4.91592 12.0117L4.76592 11.5512L5.15732 11.2664H4.67334L4.52334 10.8058ZM2.52412 8.21952L2.37529 8.68007H1.89014L2.28271 8.96483L2.13272 9.42538L2.52412 9.14061L2.9167 9.42538L2.7667 8.96483L3.15811 8.68007H2.67412L2.52412 8.21952ZM2.5792 4.96054L2.43037 5.42108H1.94521L2.33779 5.70585L2.18779 6.16639L2.5792 5.88163L2.97178 6.16639L2.82178 5.70585L3.21318 5.42108H2.7292L2.5792 4.96054ZM4.45186 2.31561L4.30186 2.77616H3.81787L4.20928 3.06093L4.05928 3.52147L4.45186 3.23671L4.84326 3.52147L4.69326 3.06093L5.08584 2.77616H4.60068L4.45186 2.31561Z" fill="#FFF176"/>
<path id="Vector_13" d="M11.1585 5.64845C11.1585 5.60743 3.84839 5.64845 3.84839 5.64845L3.78276 5.84532V6.18165C3.78276 6.24259 3.83198 6.29181 3.89292 6.29181H11.107C11.1679 6.29181 11.2171 6.24259 11.2171 6.18165V5.8547L11.1585 5.64845ZM11.1691 10.0195H3.87886L3.39136 10.2645L3.39722 10.5797C3.39839 10.6137 3.42651 10.6418 3.46167 10.6418H11.5394C11.5734 10.6418 11.6027 10.6149 11.6039 10.5797L11.6097 10.2703L11.1691 10.0195Z" fill="#D38200"/>
<path id="Vector_14" d="M5.05435 9.06094H4.63481C4.56567 9.06094 4.50942 8.84297 4.50942 8.77383L5.17856 8.75273C5.17856 8.82188 5.12231 9.06094 5.05435 9.06094ZM5.19731 6.79805H4.49067C4.43794 6.79805 4.39224 6.76289 4.377 6.7125L4.32192 6.25195H5.35669L5.30981 6.7125C5.29575 6.76289 5.25005 6.79805 5.19731 6.79805ZM4.49067 9.20039H5.19731C5.25005 9.20039 5.35435 9.2332 5.36841 9.28359C5.36841 9.28359 5.36489 9.50273 5.36489 9.58945C5.36489 9.67617 5.32974 9.73945 5.25122 9.73945H4.43677C4.35825 9.73945 4.3231 9.66914 4.3231 9.58945C4.3231 9.50977 4.31958 9.28594 4.31958 9.28594C4.33481 9.23555 4.43794 9.20039 4.49067 9.20039ZM10.5036 9.06094H10.084C10.0149 9.06094 9.95864 8.84297 9.95864 8.77383L10.6278 8.75273C10.6278 8.82188 10.5727 9.06094 10.5036 9.06094ZM10.6465 6.79805H9.93989C9.88716 6.79805 9.84145 6.76289 9.82622 6.7125L9.77114 6.25195H10.8059L10.759 6.7125C10.745 6.76289 10.6993 6.79805 10.6465 6.79805ZM9.93989 9.20039H10.6465C10.6993 9.20039 10.8036 9.2332 10.8176 9.28359C10.8176 9.28359 10.8141 9.50273 10.8141 9.58945C10.8141 9.67617 10.779 9.73945 10.7004 9.73945H9.88599C9.80747 9.73945 9.77231 9.66914 9.77231 9.58945C9.77231 9.50977 9.7688 9.28594 9.7688 9.28594C9.78403 9.23555 9.88716 9.20039 9.93989 9.20039ZM8.68716 9.06094H8.26763C8.19849 9.06094 8.14224 8.84297 8.14224 8.77383L8.81138 8.75273C8.81138 8.82188 8.7563 9.06094 8.68716 9.06094ZM8.83013 6.79805H8.12349C8.07075 6.79805 8.02505 6.76289 8.00981 6.7125L7.95474 6.25195H8.9895L8.94263 6.7125C8.92856 6.76289 8.88286 6.79805 8.83013 6.79805ZM8.12349 9.20039H8.83013C8.88286 9.20039 8.98716 9.2332 9.00122 9.28359C9.00122 9.28359 8.9977 9.50273 8.9977 9.58945C8.9977 9.67617 8.96255 9.73945 8.88403 9.73945H8.06958C7.99106 9.73945 7.95591 9.66914 7.95591 9.58945C7.95591 9.50977 7.95239 9.28594 7.95239 9.28594C7.96763 9.23555 8.07075 9.20039 8.12349 9.20039ZM6.87075 9.06094H6.45122C6.38208 9.06094 6.32583 8.84297 6.32583 8.77383L6.99497 8.75273C6.99497 8.82188 6.93989 9.06094 6.87075 9.06094ZM7.01372 6.79805H6.30708C6.25435 6.79805 6.20864 6.76289 6.19341 6.7125L6.13833 6.25195H7.1731L7.12622 6.7125C7.11216 6.76289 7.06645 6.79805 7.01372 6.79805ZM6.30708 9.20039H7.01372C7.06645 9.20039 7.17075 9.2332 7.18481 9.28359C7.18481 9.28359 7.1813 9.50273 7.1813 9.58945C7.1813 9.67617 7.14614 9.73945 7.06763 9.73945H6.25317C6.17466 9.73945 6.1395 9.66914 6.1395 9.58945C6.1395 9.50977 6.13599 9.28594 6.13599 9.28594C6.15122 9.23555 6.25435 9.20039 6.30708 9.20039Z" fill="#D38200"/>
<path id="Vector_15" d="M11.2112 5.33437C11.2112 5.29335 11.1901 5.25468 11.1585 5.23593L7.50459 3.16171L3.846 5.23359C3.81084 5.25468 3.78857 5.29335 3.78857 5.33437L3.78271 5.84648C3.78271 5.91093 3.83545 5.96367 3.8999 5.96367H11.0987C11.1632 5.96367 11.2159 5.91093 11.2159 5.84648L11.2112 5.33437Z" fill="#FFF176"/>
<path id="Vector_16" d="M10.2938 5.19492L7.50005 3.60938L4.7063 5.19492H10.2938Z" fill="#F2BC1A"/>
<path id="Vector_17" d="M9.26604 5.00157L7.50002 3.99844L5.73401 5.00157H9.26604ZM10.9442 9.61172H4.05588C3.98791 9.61172 3.92346 9.64102 3.87776 9.69141L3.40432 10.2199C3.37151 10.2563 3.39729 10.3137 3.44651 10.3137H11.5535C11.6016 10.3137 11.6274 10.2563 11.5957 10.2199L11.1211 9.69141C11.0766 9.64102 11.011 9.61172 10.9442 9.61172ZM10.5035 8.84883H10.084C10.0149 8.84883 9.95862 8.79258 9.95862 8.72344V6.85079C9.95862 6.78165 10.0149 6.7254 10.084 6.7254H10.5035C10.5727 6.7254 10.6289 6.78165 10.6289 6.85079V8.72462C10.6289 8.79376 10.5727 8.84883 10.5035 8.84883ZM10.6477 6.58594H9.94104C9.8883 6.58594 9.8426 6.55079 9.82737 6.5004L9.77346 6.31407C9.75119 6.23907 9.80862 6.16407 9.88713 6.16407H10.7016C10.7801 6.16407 10.8364 6.23907 10.8153 6.31407L10.7614 6.5004C10.7461 6.55079 10.6992 6.58594 10.6477 6.58594ZM9.93987 8.98946H10.6465C10.6992 8.98946 10.7449 9.02462 10.7602 9.07501L10.8141 9.26133C10.8364 9.33633 10.7789 9.41133 10.7004 9.41133H9.88596C9.80744 9.41133 9.75119 9.33633 9.77229 9.26133L9.82619 9.07501C9.84143 9.02344 9.8883 8.98946 9.93987 8.98946ZM5.05432 8.84883H4.63479C4.56565 8.84883 4.5094 8.79258 4.5094 8.72344V6.85079C4.5094 6.78165 4.56565 6.7254 4.63479 6.7254H5.05432C5.12346 6.7254 5.17971 6.78165 5.17971 6.85079V8.72462C5.17854 8.79376 5.12229 8.84883 5.05432 8.84883ZM5.19729 6.58594H4.49065C4.43791 6.58594 4.39221 6.55079 4.37698 6.5004L4.32307 6.31407C4.3008 6.23907 4.35823 6.16407 4.43674 6.16407H5.25119C5.32971 6.16407 5.38596 6.23907 5.36487 6.31407L5.31096 6.5004C5.29573 6.55079 5.25002 6.58594 5.19729 6.58594ZM4.49065 8.98946H5.19729C5.25002 8.98946 5.29573 9.02462 5.31096 9.07501L5.36487 9.26133C5.38713 9.33633 5.32971 9.41133 5.25119 9.41133H4.43674C4.35823 9.41133 4.30198 9.33633 4.32307 9.26133L4.37698 9.07501C4.39221 9.02344 4.43791 8.98946 4.49065 8.98946ZM6.87073 8.84883H6.45119C6.38205 8.84883 6.3258 8.79258 6.3258 8.72344V6.85079C6.3258 6.78165 6.38205 6.7254 6.45119 6.7254H6.87073C6.93987 6.7254 6.99612 6.78165 6.99612 6.85079V8.72462C6.99581 8.75767 6.98246 8.78926 6.95898 8.81252C6.9355 8.83579 6.90378 8.84884 6.87073 8.84883ZM7.01369 6.58594H6.30705C6.25432 6.58594 6.20862 6.55079 6.19338 6.5004L6.13948 6.31407C6.11721 6.23907 6.17463 6.16407 6.25315 6.16407H7.0676C7.14612 6.16407 7.20237 6.23907 7.18127 6.31407L7.12737 6.5004C7.11213 6.55079 7.06643 6.58594 7.01369 6.58594ZM6.30705 8.98946H7.01369C7.06643 8.98946 7.11213 9.02462 7.12737 9.07501L7.18127 9.26133C7.20354 9.33633 7.14612 9.41133 7.0676 9.41133H6.25315C6.17463 9.41133 6.11838 9.33633 6.13948 9.26133L6.19338 9.07501C6.20862 9.02344 6.25432 8.98946 6.30705 8.98946ZM8.68713 8.84883H8.2676C8.19846 8.84883 8.14221 8.79258 8.14221 8.72344V6.85079C8.14221 6.78165 8.19846 6.7254 8.2676 6.7254H8.68713C8.75627 6.7254 8.81252 6.78165 8.81252 6.85079V8.72462C8.81221 8.75767 8.79887 8.78926 8.77538 8.81252C8.7519 8.83579 8.72019 8.84884 8.68713 8.84883ZM8.8301 6.58594H8.12346C8.07073 6.58594 8.02502 6.55079 8.00979 6.5004L7.95588 6.31407C7.93362 6.23907 7.99104 6.16407 8.06955 6.16407H8.88401C8.96252 6.16407 9.01877 6.23907 8.99768 6.31407L8.94377 6.5004C8.92854 6.55079 8.88283 6.58594 8.8301 6.58594ZM8.12346 8.98946H8.8301C8.88283 8.98946 8.92854 9.02462 8.94377 9.07501L8.99768 9.26133C9.01994 9.33633 8.96252 9.41133 8.88401 9.41133H8.06955C7.99104 9.41133 7.93479 9.33633 7.95588 9.26133L8.00979 9.07501C8.02502 9.02344 8.0719 8.98946 8.12346 8.98946Z" fill="#FFF176"/>
</g>
<defs>
<clipPath id="clip0_117_944">
<rect width="15" height="15" fill="white"/>
</clipPath>
</defs>
</svg>
