<svg width="20" height="20" viewBox="0 0 20 20" fill="none" xmlns="http://www.w3.org/2000/svg">
<path fill-rule="evenodd" clip-rule="evenodd" d="M4.26418 6.45996C4.42948 6.44898 4.59237 6.50408 4.71707 6.61315C4.84176 6.72222 4.91805 6.87634 4.92918 7.04163L5.31251 12.7916C5.38751 13.9141 5.44084 14.6958 5.55751 15.2833C5.67168 15.8541 5.83001 16.1558 6.05751 16.3691C6.28584 16.5825 6.59751 16.7208 7.17418 16.7958C7.76918 16.8733 8.55251 16.875 9.67751 16.875H10.3225C11.4475 16.875 12.2308 16.8733 12.8258 16.7958C13.4025 16.7208 13.7142 16.5825 13.9425 16.3691C14.17 16.1558 14.3283 15.8541 14.4425 15.2841C14.5592 14.6958 14.6125 13.9141 14.6875 12.7908L15.0708 7.04163C15.0763 6.95971 15.0979 6.87968 15.1343 6.8061C15.1707 6.73252 15.2212 6.66682 15.283 6.61277C15.3448 6.55872 15.4166 6.51737 15.4944 6.49108C15.5722 6.46479 15.6543 6.45407 15.7363 6.45954C15.8182 6.46501 15.8982 6.48657 15.9718 6.52297C16.0454 6.55937 16.1111 6.60991 16.1651 6.6717C16.2192 6.73349 16.2605 6.80532 16.2868 6.88309C16.3131 6.96086 16.3238 7.04305 16.3183 7.12496L15.9317 12.9183C15.8608 13.9866 15.8033 14.8508 15.6683 15.5283C15.5275 16.2325 15.2892 16.8208 14.7958 17.2816C14.3033 17.7433 13.7 17.9425 12.9875 18.035C12.3025 18.125 11.4375 18.125 10.3667 18.125H9.63334C8.56251 18.125 7.69751 18.125 7.01251 18.035C6.30001 17.9425 5.69668 17.7433 5.20418 17.2816C4.71084 16.8208 4.47251 16.2316 4.33168 15.5283C4.19668 14.85 4.14001 13.9866 4.06834 12.9183L3.68168 7.12496C3.67624 7.04304 3.687 6.96086 3.71334 6.88311C3.73968 6.80535 3.78107 6.73354 3.83517 6.67179C3.88926 6.61003 3.95499 6.55954 4.0286 6.5232C4.10221 6.48685 4.18226 6.46536 4.26418 6.45996ZM8.62918 1.87496H8.59084C8.41084 1.87496 8.25334 1.87496 8.10501 1.89829C7.81608 1.94458 7.542 2.05784 7.30469 2.22903C7.06738 2.40021 6.87342 2.62456 6.73834 2.88413C6.66834 3.01746 6.61918 3.16663 6.56251 3.33746L6.55001 3.37413L6.46918 3.61579C6.40536 3.8426 6.26654 4.04106 6.07538 4.17879C5.88422 4.31653 5.65202 4.38538 5.41668 4.37413H2.91668C2.75081 4.37413 2.59173 4.44002 2.47444 4.55731C2.35715 4.67459 2.29126 4.83367 2.29126 4.99954C2.29126 5.16541 2.35715 5.32449 2.47444 5.44178C2.59173 5.55907 2.75081 5.62496 2.91668 5.62496H17.0842C17.2499 5.62496 17.4089 5.55911 17.5261 5.4419C17.6433 5.32469 17.7092 5.16572 17.7092 4.99996C17.7092 4.8342 17.6433 4.67523 17.5261 4.55802C17.4089 4.44081 17.2499 4.37496 17.0842 4.37496H14.5083C14.2858 4.36962 14.0707 4.2931 13.8948 4.15663C13.7189 4.02015 13.5913 3.8309 13.5308 3.61663L13.45 3.37413L13.4383 3.33746C13.3808 3.16663 13.3317 3.01746 13.2625 2.88413C13.1273 2.62446 12.9333 2.40005 12.6958 2.22886C12.4583 2.05767 12.1841 1.94446 11.895 1.89829C11.7339 1.87785 11.5715 1.87005 11.4092 1.87496H11.3708H8.62918ZM7.62084 4.11246C7.58751 4.20329 7.55001 4.29079 7.50668 4.37496H12.4933C12.4502 4.29016 12.4123 4.20277 12.38 4.11329L12.3467 4.01829L12.2642 3.76829C12.2337 3.66385 12.1967 3.56142 12.1533 3.46163C12.1084 3.37497 12.0437 3.30005 11.9645 3.24289C11.8854 3.18573 11.7939 3.14791 11.6975 3.13246C11.5889 3.1231 11.4798 3.1206 11.3708 3.12496H8.62918C8.38918 3.12496 8.33918 3.12663 8.30251 3.13329C8.20618 3.14865 8.11478 3.18635 8.03562 3.24336C7.95647 3.30037 7.89176 3.37512 7.84668 3.46163C7.83001 3.49496 7.81168 3.54079 7.73584 3.76913L7.65251 4.01913L7.62084 4.11246Z" fill="#FF384C"/>
</svg>
