<svg width="22" height="22" viewBox="0 0 22 22" fill="none" xmlns="http://www.w3.org/2000/svg">
<g id="mdi:thunder-circle">
<path id="Vector" d="M10.5416 18.3333L14.9966 9.41415H11.9166V3.66665L7.33325 12.5858H10.5416V18.3333ZM10.9999 1.83331C13.5208 1.83331 15.6749 2.74998 17.4624 4.53748C19.2499 6.32498 20.1666 8.47915 20.1666 11C20.1666 13.5208 19.2499 15.675 17.4624 17.4625C15.6749 19.25 13.5208 20.1666 10.9999 20.1666C8.47909 20.1666 6.32492 19.25 4.53742 17.4625C2.74992 15.675 1.83325 13.5208 1.83325 11C1.83325 8.47915 2.74992 6.32498 4.53742 4.53748C6.32492 2.74998 8.47909 1.83331 10.9999 1.83331Z" fill="#F75A28"/>
</g>
</svg>
