<svg width="30" height="30" viewBox="0 0 30 30" fill="none" xmlns="http://www.w3.org/2000/svg">
<g clip-path="url(#clip0_346_1266)">
<path d="M15 30C23.2843 30 30 23.2843 30 15C30 6.71573 23.2843 0 15 0C6.71573 0 0 6.71573 0 15C0 23.2843 6.71573 30 15 30Z" fill="#DBB358"/>
<path d="M19.9181 10.9312C20.0561 10.9293 20.1892 10.9824 20.2881 11.0786C20.387 11.1749 20.4436 11.3065 20.4454 11.4445C20.4473 11.5825 20.3943 11.7156 20.298 11.8145C20.2017 11.9134 20.0701 11.97 19.9321 11.9718H10.6031V18.0281H19.3987V15.4312H13.4906C13.355 15.4312 13.2247 15.3784 13.1276 15.2838C13.0304 15.1893 12.9739 15.0605 12.9703 14.925V14.9109C12.9703 14.6287 13.1953 14.3981 13.4765 14.3906H19.919C20.2021 14.3906 20.4318 14.6156 20.4393 14.8968V18.5493C20.4393 18.8324 20.2143 19.0621 19.9331 19.0696H10.0818C9.94624 19.0697 9.81599 19.0168 9.7188 18.9222C9.62162 18.8277 9.56519 18.6989 9.56152 18.5634V11.4524C9.56152 11.1703 9.78652 10.9396 10.0678 10.9331H19.9181V10.9312Z" fill="white"/>
<path d="M15 4.6875C9.30469 4.6875 4.6875 9.30469 4.6875 15C4.6875 20.6953 9.30469 25.3125 15 25.3125C20.6953 25.3125 25.3125 20.6953 25.3125 15C25.3125 9.30469 20.6953 4.6875 15 4.6875ZM15 5.72813C20.1206 5.72813 24.2719 9.87937 24.2719 15C24.2719 20.1206 20.1206 24.2719 15 24.2719C9.87937 24.2719 5.72813 20.1206 5.72813 15C5.72813 9.87937 9.87937 5.72813 15 5.72813Z" fill="white"/>
<path d="M16.5093 7.87695C16.7924 7.87695 17.0221 8.10195 17.0296 8.3832V11.4516C17.0296 11.7348 16.8046 11.9645 16.5233 11.972H13.4887C13.3532 11.9718 13.2232 11.9188 13.1262 11.8242C13.0292 11.7297 12.9729 11.6011 12.9693 11.4657V8.39726C12.9674 8.25927 13.0205 8.12618 13.1167 8.02729C13.213 7.92839 13.3446 7.87179 13.4826 7.86992C13.6206 7.86806 13.7536 7.92109 13.8525 8.01734C13.9514 8.1136 14.008 8.24521 14.0099 8.3832V10.9313H15.989V8.39726C15.989 8.11414 16.214 7.88445 16.4952 7.87695H16.5093ZM16.5093 18.0282C16.7924 18.0282 17.0221 18.2532 17.0296 18.5345V21.6029C17.0315 21.7409 16.9784 21.874 16.8822 21.9729C16.8345 22.0218 16.7777 22.0609 16.7149 22.0879C16.6521 22.1149 16.5846 22.1293 16.5163 22.1302C16.448 22.1312 16.3801 22.1186 16.3167 22.0933C16.2532 22.068 16.1953 22.0305 16.1463 21.9828C16.0474 21.8865 15.9908 21.7549 15.989 21.617V19.0688H14.0108V21.6029C14.0109 21.7386 13.9579 21.869 13.8631 21.9662C13.7684 22.0635 13.6394 22.1198 13.5037 22.1232H13.4896C13.354 22.1233 13.2237 22.0704 13.1266 21.9758C13.0294 21.8813 12.973 21.7525 12.9693 21.617V18.5485C12.9693 18.2654 13.1943 18.0357 13.4755 18.0282H16.5093Z" fill="white"/>
</g>
<defs>
<clipPath id="clip0_346_1266">
<rect width="30" height="30" fill="white"/>
</clipPath>
</defs>
</svg>
