<svg width="20" height="20" viewBox="0 0 20 20" fill="none" xmlns="http://www.w3.org/2000/svg">
<g id="solar:heart-pulse-linear">
<g id="Group">
<path id="Vector" d="M15 9.99998H14.3325C13.6408 9.99998 13.295 9.99998 13.0083 10.1625C12.7217 10.3241 12.5442 10.6208 12.1883 11.2133L12.1633 11.2566C11.8317 11.8091 11.6658 12.085 11.425 12.0808C11.1833 12.0758 11.0283 11.7941 10.7175 11.2291L9.31167 8.67332C9.0225 8.14665 8.87833 7.88332 8.64667 7.87082C8.41583 7.85832 8.24333 8.10415 7.89917 8.59582L7.66333 8.93332C7.29667 9.45582 7.11417 9.71665 6.84333 9.85832C6.57167 9.99998 6.2525 9.99998 5.615 9.99998H5" stroke="white" stroke-width="1.5" stroke-linecap="round"/>
<path id="Vector_2" d="M10.0001 4.58327L9.54175 5.00827C9.60025 5.07138 9.67116 5.12172 9.75003 5.15615C9.8289 5.19058 9.91403 5.20835 10.0001 5.20835C10.0861 5.20835 10.1713 5.19058 10.2501 5.15615C10.329 5.12172 10.3999 5.07138 10.4584 5.00827L10.0001 4.58327ZM7.86341 15.6583C6.65508 14.6724 5.24425 13.3816 4.14091 11.9674C3.02508 10.5383 2.29175 9.0691 2.29175 7.71744H1.04175C1.04175 9.4891 1.98341 11.2341 3.15508 12.7366C4.33925 14.2533 5.83008 15.6133 7.07341 16.6274L7.86341 15.6583ZM2.29175 7.71744C2.29175 5.44244 3.34008 3.92077 4.66675 3.36827C5.97758 2.82327 7.79425 3.1291 9.54175 5.00827L10.4584 4.1566C8.45591 2.00577 6.10591 1.41577 4.18675 2.2141C2.28508 3.00577 1.04175 5.0666 1.04175 7.71744H2.29175ZM12.9267 16.6274C14.1709 15.6133 15.6601 14.2533 16.8451 12.7349C18.0176 11.2324 18.9584 9.48827 18.9584 7.7166H17.7084C17.7084 9.06827 16.9751 10.5374 15.8592 11.9666C14.7559 13.3808 13.3451 14.6724 12.1367 15.6583L12.9267 16.6274ZM18.9584 7.7166C18.9584 5.0666 17.7151 3.00494 15.8134 2.2141C13.8942 1.41577 11.5442 2.00577 9.54258 4.15577L10.4576 5.00827C12.2059 3.1291 14.0226 2.82327 15.3326 3.36827C16.6601 3.91994 17.7084 5.4416 17.7084 7.7166H18.9584ZM7.07341 16.6274C8.13175 17.4908 8.86675 18.1249 10.0001 18.1249V16.8749C9.39841 16.8749 9.02425 16.6041 7.86341 15.6583L7.07341 16.6274ZM12.1367 15.6574C10.9759 16.6049 10.6017 16.8749 10.0001 16.8749V18.1249C11.1326 18.1249 11.8676 17.4908 12.9267 16.6274L12.1367 15.6574Z" fill="white"/>
</g>
</g>
</svg>
