<svg width="22" height="22" viewBox="0 0 22 22" fill="none" xmlns="http://www.w3.org/2000/svg">
<g id="mdi:luck">
<path id="Vector" d="M10.9999 10.2483C14.0249 7.49831 15.5833 6.08665 15.5833 4.29915C15.5833 2.92415 14.4374 1.83331 13.0624 1.83331C12.2741 1.83331 11.5224 2.16331 10.9999 2.74998C10.4774 2.16331 9.72575 1.83331 8.88242 1.83331C7.50742 1.83331 6.41659 2.97915 6.41659 4.35415C6.41659 6.08665 7.97492 7.49831 10.9999 10.2483ZM10.2483 11C7.49825 7.97498 6.08659 6.41665 4.29909 6.41665C2.92409 6.41665 1.83325 7.56248 1.83325 8.93748C1.83325 9.72581 2.16325 10.4775 2.74992 11C2.16325 11.5225 1.83325 12.2741 1.83325 13.1175C1.83325 14.4925 2.97909 15.5833 4.35409 15.5833C6.08659 15.5833 7.49825 14.025 10.2483 11ZM11.7608 11C14.5016 14.025 15.9133 15.5833 17.7008 15.5833C19.0758 15.5833 20.1666 14.4375 20.1666 13.0625C20.1666 12.2741 19.8366 11.5225 19.2499 11C19.8366 10.4775 20.1666 9.72581 20.1666 8.88248C20.1666 7.50748 19.0208 6.41665 17.6458 6.41665C15.9133 6.41665 14.5016 7.97498 11.7608 11ZM10.9999 11.7516C7.97492 14.5016 6.41659 15.9133 6.41659 17.7008C6.41659 19.0758 7.56242 20.1666 8.93742 20.1666C9.72575 20.1666 10.4774 19.8366 10.9999 19.25C11.5224 19.8366 12.2741 20.1666 13.1174 20.1666C14.4924 20.1666 15.5833 19.0208 15.5833 17.6458C15.5833 15.9133 14.0249 14.5016 10.9999 11.7516Z" fill="#F75A28"/>
</g>
</svg>
