<svg width="24" height="24" viewBox="0 0 24 24" fill="none" xmlns="http://www.w3.org/2000/svg">
<g id="solar:user-outline">
<path id="Vector" fill-rule="evenodd" clip-rule="evenodd" d="M12 1.25C10.7402 1.25 9.53204 1.75045 8.64124 2.64124C7.75044 3.53204 7.25 4.74022 7.25 6C7.25 7.25978 7.75044 8.46796 8.64124 9.35876C9.53204 10.2496 10.7402 10.75 12 10.75C13.2598 10.75 14.468 10.2496 15.3588 9.35876C16.2496 8.46796 16.75 7.25978 16.75 6C16.75 4.74022 16.2496 3.53204 15.3588 2.64124C14.468 1.75045 13.2598 1.25 12 1.25ZM8.75 6C8.75 5.13805 9.09241 4.3114 9.7019 3.7019C10.3114 3.09241 11.138 2.75 12 2.75C12.862 2.75 13.6886 3.09241 14.2981 3.7019C14.9076 4.3114 15.25 5.13805 15.25 6C15.25 6.86195 14.9076 7.6886 14.2981 8.2981C13.6886 8.90759 12.862 9.25 12 9.25C11.138 9.25 10.3114 8.90759 9.7019 8.2981C9.09241 7.6886 8.75 6.86195 8.75 6ZM12 12.25C9.687 12.25 7.555 12.776 5.976 13.664C4.42 14.54 3.25 15.866 3.25 17.5V17.602C3.249 18.764 3.248 20.222 4.527 21.264C5.156 21.776 6.037 22.141 7.227 22.381C8.419 22.623 9.974 22.75 12 22.75C14.026 22.75 15.58 22.623 16.774 22.381C17.964 22.141 18.844 21.776 19.474 21.264C20.753 20.222 20.751 18.764 20.75 17.602V17.5C20.75 15.866 19.58 14.54 18.025 13.664C16.445 12.776 14.314 12.25 12 12.25ZM4.75 17.5C4.75 16.649 5.372 15.725 6.711 14.972C8.027 14.232 9.895 13.75 12.001 13.75C14.105 13.75 15.973 14.232 17.289 14.972C18.629 15.725 19.25 16.649 19.25 17.5C19.25 18.808 19.21 19.544 18.526 20.1C18.156 20.402 17.536 20.697 16.476 20.911C15.419 21.125 13.974 21.25 12 21.25C10.026 21.25 8.58 21.125 7.524 20.911C6.464 20.697 5.844 20.402 5.474 20.101C4.79 19.544 4.75 18.808 4.75 17.5Z" fill="black" fill-opacity="0.2"/>
</g>
</svg>
