<svg width="24" height="24" viewBox="0 0 24 24" fill="none" xmlns="http://www.w3.org/2000/svg">
<path d="M12 6.25C12.1989 6.25 12.3897 6.32902 12.5303 6.46967C12.671 6.61032 12.75 6.80109 12.75 7V12.19L14.47 10.47C14.5387 10.3963 14.6215 10.3372 14.7135 10.2962C14.8055 10.2552 14.9048 10.2332 15.0055 10.2314C15.1062 10.2296 15.2062 10.2482 15.2996 10.2859C15.393 10.3236 15.4778 10.3797 15.549 10.451C15.6203 10.5222 15.6764 10.607 15.7141 10.7004C15.7518 10.7938 15.7704 10.8938 15.7686 10.9945C15.7668 11.0952 15.7448 11.1945 15.7038 11.2865C15.6628 11.3785 15.6037 11.4613 15.53 11.53L12.53 14.53C12.3894 14.6705 12.1988 14.7493 12 14.7493C11.8012 14.7493 11.6106 14.6705 11.47 14.53L8.47 11.53C8.39631 11.4613 8.33721 11.3785 8.29622 11.2865C8.25523 11.1945 8.23318 11.0952 8.23141 10.9945C8.22963 10.8938 8.24816 10.7938 8.28588 10.7004C8.3236 10.607 8.37974 10.5222 8.45096 10.451C8.52218 10.3797 8.60701 10.3236 8.7004 10.2859C8.79379 10.2482 8.89382 10.2296 8.99452 10.2314C9.09522 10.2332 9.19454 10.2552 9.28654 10.2962C9.37854 10.3372 9.46134 10.3963 9.53 10.47L11.25 12.19V7C11.25 6.80109 11.329 6.61032 11.4697 6.46967C11.6103 6.32902 11.8011 6.25 12 6.25ZM7.25 17C7.25 16.8011 7.32902 16.6103 7.46967 16.4697C7.61032 16.329 7.80109 16.25 8 16.25H16C16.1989 16.25 16.3897 16.329 16.5303 16.4697C16.671 16.6103 16.75 16.8011 16.75 17C16.75 17.1989 16.671 17.3897 16.5303 17.5303C16.3897 17.671 16.1989 17.75 16 17.75H8C7.80109 17.75 7.61032 17.671 7.46967 17.5303C7.32902 17.3897 7.25 17.1989 7.25 17Z" fill="#F75A28"/>
<path fill-rule="evenodd" clip-rule="evenodd" d="M11.943 1.25C9.634 1.25 7.825 1.25 6.413 1.44C4.969 1.634 3.829 2.04 2.934 2.934C2.039 3.829 1.634 4.969 1.44 6.414C1.25 7.825 1.25 9.634 1.25 11.943V12.057C1.25 14.366 1.25 16.175 1.44 17.587C1.634 19.031 2.04 20.171 2.934 21.066C3.829 21.961 4.969 22.366 6.414 22.56C7.825 22.75 9.634 22.75 11.943 22.75H12.057C14.366 22.75 16.175 22.75 17.587 22.56C19.031 22.366 20.171 21.96 21.066 21.066C21.961 20.171 22.366 19.031 22.56 17.586C22.75 16.175 22.75 14.366 22.75 12.057V11.943C22.75 9.634 22.75 7.825 22.56 6.413C22.366 4.969 21.96 3.829 21.066 2.934C20.171 2.039 19.031 1.634 17.586 1.44C16.175 1.25 14.366 1.25 12.057 1.25H11.943ZM3.995 3.995C4.565 3.425 5.335 3.098 6.614 2.926C7.914 2.752 9.622 2.75 12 2.75C14.378 2.75 16.086 2.752 17.386 2.926C18.665 3.098 19.436 3.426 20.006 3.995C20.575 4.565 20.902 5.335 21.074 6.614C21.248 7.914 21.25 9.622 21.25 12C21.25 14.378 21.248 16.086 21.074 17.386C20.902 18.665 20.574 19.436 20.005 20.006C19.435 20.575 18.665 20.902 17.386 21.074C16.086 21.248 14.378 21.25 12 21.25C9.622 21.25 7.914 21.248 6.614 21.074C5.335 20.902 4.564 20.574 3.994 20.005C3.425 19.435 3.098 18.665 2.926 17.386C2.752 16.086 2.75 14.378 2.75 12C2.75 9.622 2.752 7.914 2.926 6.614C3.098 5.335 3.426 4.565 3.995 3.995Z" fill="#F75A28"/>
</svg>
