<svg width="20" height="20" viewBox="0 0 20 20" fill="none" xmlns="http://www.w3.org/2000/svg">
<g id="solar:routing-3-outline">
<path id="Vector" fill-rule="evenodd" clip-rule="evenodd" d="M4.16675 2.29175C3.92052 2.29175 3.6767 2.34025 3.44922 2.43447C3.22173 2.5287 3.01503 2.66681 2.84092 2.84092C2.66681 3.01503 2.5287 3.22173 2.43447 3.44922C2.34025 3.6767 2.29175 3.92052 2.29175 4.16675C2.29175 4.41298 2.34025 4.65679 2.43447 4.88428C2.5287 5.11177 2.66681 5.31846 2.84092 5.49257C3.01503 5.66668 3.22173 5.80479 3.44922 5.89902C3.6767 5.99325 3.92052 6.04175 4.16675 6.04175C4.66403 6.04175 5.14094 5.8442 5.49257 5.49257C5.8442 5.14094 6.04175 4.66403 6.04175 4.16675C6.04175 3.66947 5.8442 3.19255 5.49257 2.84092C5.14094 2.48929 4.66403 2.29175 4.16675 2.29175ZM1.04175 4.16675C1.04175 3.33795 1.37099 2.54309 1.95704 1.95704C2.54309 1.37099 3.33795 1.04175 4.16675 1.04175C4.99555 1.04175 5.79041 1.37099 6.37646 1.95704C6.96251 2.54309 7.29175 3.33795 7.29175 4.16675C7.29175 4.99555 6.96251 5.79041 6.37646 6.37646C5.79041 6.96251 4.99555 7.29175 4.16675 7.29175C3.33795 7.29175 2.54309 6.96251 1.95704 6.37646C1.37099 5.79041 1.04175 4.99555 1.04175 4.16675ZM8.54175 4.16675C8.54175 4.00099 8.6076 3.84202 8.72481 3.72481C8.84202 3.6076 9.00099 3.54175 9.16675 3.54175H13.4434C15.7359 3.54175 16.6076 6.53591 14.6734 7.76675L5.99758 13.2876C5.11841 13.8476 5.51425 15.2084 6.55675 15.2084H9.32425L9.14091 15.0251C9.08125 14.9674 9.03367 14.8984 9.00095 14.8221C8.96823 14.7459 8.95103 14.6639 8.95035 14.5809C8.94966 14.4979 8.96552 14.4156 8.99698 14.3388C9.02844 14.262 9.07488 14.1922 9.13359 14.1336C9.1923 14.0749 9.26211 14.0286 9.33893 13.9972C9.41576 13.9658 9.49806 13.95 9.58105 13.9508C9.66403 13.9515 9.74604 13.9688 9.82228 14.0016C9.89851 14.0344 9.96745 14.082 10.0251 14.1417L11.2751 15.3917C11.3921 15.5089 11.4579 15.6678 11.4579 15.8334C11.4579 15.999 11.3921 16.1579 11.2751 16.2751L10.0251 17.5251C9.96786 17.5865 9.89886 17.6357 9.8222 17.6699C9.74553 17.7041 9.66277 17.7224 9.57885 17.7239C9.49493 17.7254 9.41157 17.71 9.33375 17.6785C9.25593 17.6471 9.18523 17.6003 9.12588 17.5409C9.06653 17.4816 9.01975 17.4109 8.98831 17.3331C8.95688 17.2553 8.94144 17.1719 8.94292 17.088C8.9444 17.0041 8.96277 16.9213 8.99693 16.8446C9.03109 16.768 9.08034 16.699 9.14175 16.6417L9.32508 16.4584H6.55591C4.26342 16.4584 3.39175 13.4642 5.32591 12.2334L14.0017 6.71258C14.8809 6.15258 14.4851 4.79175 13.4426 4.79175H9.16675C9.00099 4.79175 8.84202 4.7259 8.72481 4.60869C8.6076 4.49148 8.54175 4.33251 8.54175 4.16675ZM15.8334 13.9584C15.3361 13.9584 14.8592 14.156 14.5076 14.5076C14.156 14.8592 13.9584 15.3361 13.9584 15.8334C13.9584 16.3307 14.156 16.8076 14.5076 17.1592C14.8592 17.5109 15.3361 17.7084 15.8334 17.7084C16.3307 17.7084 16.8076 17.5109 17.1592 17.1592C17.5109 16.8076 17.7084 16.3307 17.7084 15.8334C17.7084 15.3361 17.5109 14.8592 17.1592 14.5076C16.8076 14.156 16.3307 13.9584 15.8334 13.9584ZM12.7084 15.8334C12.7084 15.0046 13.0377 14.2098 13.6237 13.6237C14.2098 13.0377 15.0046 12.7084 15.8334 12.7084C16.6622 12.7084 17.4571 13.0377 18.0431 13.6237C18.6292 14.2098 18.9584 15.0046 18.9584 15.8334C18.9584 16.6622 18.6292 17.4571 18.0431 18.0431C17.4571 18.6292 16.6622 18.9584 15.8334 18.9584C15.0046 18.9584 14.2098 18.6292 13.6237 18.0431C13.0377 17.4571 12.7084 16.6622 12.7084 15.8334Z" fill="white"/>
</g>
</svg>
