<svg width="24" height="24" viewBox="0 0 24 24" fill="none" xmlns="http://www.w3.org/2000/svg">
<g id="solar:running-2-bold">
<path id="Vector" d="M20.75 4.5C20.75 5.16304 20.4866 5.79893 20.0178 6.26777C19.5489 6.73661 18.913 7 18.25 7C17.587 7 16.9511 6.73661 16.4822 6.26777C16.0134 5.79893 15.75 5.16304 15.75 4.5C15.75 3.83696 16.0134 3.20107 16.4822 2.73223C16.9511 2.26339 17.587 2 18.25 2C18.913 2 19.5489 2.26339 20.0178 2.73223C20.4866 3.20107 20.75 3.83696 20.75 4.5Z" fill="black" fill-opacity="0.2"/>
<path id="Vector_2" fill-rule="evenodd" clip-rule="evenodd" d="M13.437 6.661L13.442 6.664C14.634 7.15004 15.61 8.05076 16.19 9.2C16.4979 9.81577 16.9713 10.3336 17.5569 10.6955C18.1426 11.0574 18.8175 11.2491 19.506 11.249H20.751C20.9499 11.249 21.1407 11.328 21.2813 11.4687C21.422 11.6093 21.501 11.8001 21.501 11.999C21.501 12.1979 21.422 12.3887 21.2813 12.5293C21.1407 12.67 20.9499 12.749 20.751 12.749H19.506C18.5389 12.7492 17.5909 12.48 16.7682 11.9717C15.9455 11.4634 15.2806 10.736 14.848 9.871C14.4306 9.0455 13.7288 8.39875 12.872 8.05C11.508 7.488 11.076 7.33 10.252 7.39C9.109 7.473 8.059 8.05 5.557 9.472L4.122 10.287C4.03638 10.3357 3.942 10.3671 3.84425 10.3793C3.7465 10.3916 3.6473 10.3845 3.5523 10.3584C3.36045 10.3057 3.1974 10.1789 3.099 10.006C3.05028 9.92038 3.0189 9.826 3.00665 9.72825C2.99441 9.6305 3.00154 9.53129 3.02763 9.4363C3.08033 9.24445 3.20708 9.08139 3.38 8.983L4.816 8.168L4.988 8.07C7.262 6.777 8.622 6.004 10.143 5.894C11.361 5.805 12.097 6.109 13.438 6.66M13.306 10.495C13.3724 10.5679 13.4237 10.6531 13.4571 10.7458C13.4905 10.8385 13.5053 10.9369 13.5007 11.0354C13.496 11.1338 13.472 11.2304 13.4301 11.3195C13.3881 11.4087 13.3289 11.4887 13.256 11.555L12.721 12.033C12.441 12.283 12.17 12.523 11.923 12.757C11.7586 12.9096 11.6014 13.0697 11.452 13.237C11.3986 13.2955 11.3498 13.358 11.306 13.424C11.2478 13.5809 11.2218 13.7478 11.2293 13.915C11.2369 14.0821 11.2779 14.246 11.35 14.397C11.392 14.486 11.48 14.607 11.713 14.815C11.951 15.027 12.281 15.278 12.768 15.647L12.843 15.703C13.403 16.128 13.792 16.422 14.087 16.793C14.415 17.206 14.652 17.683 14.783 18.194C14.901 18.654 14.901 19.141 14.901 19.844V22C14.901 22.1989 14.822 22.3897 14.6813 22.5303C14.5407 22.671 14.3499 22.75 14.151 22.75C13.9521 22.75 13.7613 22.671 13.6207 22.5303C13.48 22.3897 13.401 22.1989 13.401 22V19.939C13.401 19.106 13.396 18.822 13.331 18.569C13.2524 18.2624 13.1099 17.9758 12.913 17.728C12.75 17.523 12.526 17.346 11.863 16.844L11.839 16.825C11.4539 16.5428 11.0793 16.2466 10.716 15.937C10.419 15.673 10.163 15.394 9.996 15.043C9.83764 14.7109 9.74755 14.3503 9.73106 13.9827C9.71457 13.6151 9.77202 13.248 9.9 12.903C9.992 12.655 10.17 12.427 10.319 12.256C10.482 12.067 10.683 11.866 10.892 11.669C11.152 11.423 11.457 11.151 11.753 10.887C11.925 10.735 12.093 10.585 12.246 10.445C12.3189 10.3786 12.4041 10.3273 12.4968 10.2939C12.5895 10.2605 12.6879 10.2457 12.7864 10.2503C12.8848 10.255 12.9814 10.279 13.0705 10.3209C13.1597 10.3629 13.2397 10.4221 13.306 10.495ZM9.23 16.424C9.38271 16.5513 9.47861 16.7341 9.49662 16.9321C9.51462 17.1301 9.45325 17.3272 9.326 17.48L8.326 18.681L8.229 18.797C7.587 19.568 7.116 20.135 6.458 20.443C5.8 20.751 5.063 20.751 4.058 20.75H2.75C2.55109 20.75 2.36032 20.671 2.21967 20.5303C2.07902 20.3897 2 20.1989 2 20C2 19.8011 2.07902 19.6103 2.21967 19.4697C2.36032 19.329 2.55109 19.25 2.75 19.25H3.908C5.13 19.25 5.504 19.233 5.821 19.085C6.139 18.936 6.391 18.659 7.173 17.721L8.173 16.52C8.23606 16.4442 8.31344 16.3816 8.40071 16.3358C8.48798 16.29 8.58343 16.2618 8.6816 16.2529C8.77977 16.244 8.87873 16.2545 8.97283 16.2839C9.06693 16.3132 9.15432 16.3608 9.23 16.424Z" fill="black" fill-opacity="0.2"/>
</g>
</svg>
