<svg width="24" height="24" viewBox="0 0 24 24" fill="none" xmlns="http://www.w3.org/2000/svg">
<g id="solar:settings-bold">
<path id="Vector" fill-rule="evenodd" clip-rule="evenodd" d="M14.2791 2.152C13.9091 2 13.4391 2 12.5001 2C11.5611 2 11.0921 2 10.7211 2.152C10.2285 2.35421 9.83645 2.74377 9.63107 3.235C9.53707 3.458 9.50107 3.719 9.48607 4.098C9.4794 4.3726 9.4028 4.64097 9.26352 4.87772C9.12423 5.11447 8.92686 5.31178 8.69007 5.451C8.44882 5.5851 8.17762 5.65615 7.9016 5.65754C7.62558 5.65894 7.35367 5.59065 7.11107 5.459C6.77307 5.281 6.52807 5.183 6.28607 5.151C5.75663 5.08148 5.22114 5.2238 4.79607 5.547C4.47807 5.789 4.24307 6.193 3.77407 7C3.30407 7.807 3.07007 8.21 3.01707 8.605C2.94707 9.131 3.09107 9.663 3.41707 10.084C3.56507 10.276 3.77407 10.437 4.09707 10.639C4.57407 10.936 4.88007 11.442 4.88007 12C4.88007 12.558 4.57407 13.064 4.09807 13.36C3.77407 13.563 3.56507 13.724 3.41607 13.916C3.25515 14.1239 3.13704 14.3617 3.06856 14.6156C3.00007 14.8694 2.98257 15.1343 3.01707 15.395C3.07007 15.789 3.30407 16.193 3.77407 17C4.24407 17.807 4.47807 18.21 4.79607 18.453C5.22007 18.776 5.75607 18.918 6.28607 18.849C6.52807 18.817 6.77307 18.719 7.11107 18.541C7.3538 18.4092 7.62589 18.3408 7.9021 18.3422C8.17831 18.3436 8.44969 18.4147 8.69107 18.549C9.17707 18.829 9.46507 19.344 9.48607 19.902C9.50107 20.282 9.53707 20.542 9.63107 20.765C9.83507 21.255 10.2271 21.645 10.7211 21.848C11.0911 22 11.5611 22 12.5001 22C13.4391 22 13.9091 22 14.2791 21.848C14.7716 21.6458 15.1637 21.2562 15.3691 20.765C15.4631 20.542 15.4991 20.282 15.5141 19.902C15.5341 19.344 15.8231 18.828 16.3101 18.549C16.5513 18.4149 16.8225 18.3439 17.0985 18.3425C17.3746 18.3411 17.6465 18.4093 17.8891 18.541C18.2271 18.719 18.4721 18.817 18.7141 18.849C19.2441 18.919 19.7801 18.776 20.2041 18.453C20.5221 18.211 20.7571 17.807 21.2261 17C21.6961 16.193 21.9301 15.79 21.9831 15.395C22.0174 15.1343 21.9998 14.8693 21.9311 14.6155C21.8625 14.3616 21.7442 14.1239 21.5831 13.916C21.4351 13.724 21.2261 13.563 20.9031 13.361C20.4261 13.064 20.1201 12.558 20.1201 12C20.1201 11.442 20.4261 10.936 20.9021 10.64C21.2261 10.437 21.4351 10.276 21.5841 10.084C21.745 9.87606 21.8631 9.63829 21.9316 9.38443C22.0001 9.13057 22.0176 8.86566 21.9831 8.605C21.9301 8.211 21.6961 7.807 21.2261 7C20.7561 6.193 20.5221 5.79 20.2041 5.547C19.779 5.2238 19.2435 5.08148 18.7141 5.151C18.4721 5.183 18.2271 5.281 17.8891 5.459C17.6463 5.59083 17.3743 5.65922 17.098 5.65782C16.8218 5.65642 16.5504 5.58528 16.3091 5.451C16.0725 5.31166 15.8753 5.11429 15.7362 4.87755C15.5971 4.64081 15.5206 4.37251 15.5141 4.098C15.4991 3.718 15.4631 3.458 15.3691 3.235C15.2674 2.99174 15.1188 2.77088 14.9318 2.58506C14.7448 2.39923 14.523 2.25208 14.2791 2.152ZM12.5001 15C14.1701 15 15.5231 13.657 15.5231 12C15.5231 10.343 14.1691 9 12.5001 9C10.8301 9 9.47707 10.343 9.47707 12C9.47707 13.657 10.8311 15 12.5001 15Z" fill="black"/>
</g>
</svg>
