<svg width="24" height="24" viewBox="0 0 24 24" fill="none" xmlns="http://www.w3.org/2000/svg">
<g id="ph:sneaker-move">
<path id="Vector" d="M9.75 19.5C9.75 19.6989 9.67098 19.8897 9.53033 20.0303C9.38968 20.171 9.19891 20.25 9 20.25H4.5C4.30109 20.25 4.11032 20.171 3.96967 20.0303C3.82902 19.8897 3.75 19.6989 3.75 19.5C3.75 19.3011 3.82902 19.1103 3.96967 18.9697C4.11032 18.829 4.30109 18.75 4.5 18.75H9C9.19891 18.75 9.38968 18.829 9.53033 18.9697C9.67098 19.1103 9.75 19.3011 9.75 19.5ZM6.75 16.5C6.75 16.3011 6.67098 16.1103 6.53033 15.9697C6.38968 15.829 6.19891 15.75 6 15.75H3C2.80109 15.75 2.61032 15.829 2.46967 15.9697C2.32902 16.1103 2.25 16.3011 2.25 16.5C2.25 16.6989 2.32902 16.8897 2.46967 17.0303C2.61032 17.171 2.80109 17.25 3 17.25H6C6.19891 17.25 6.38968 17.171 6.53033 17.0303C6.67098 16.8897 6.75 16.6989 6.75 16.5ZM24 18V18.75C24 19.1478 23.842 19.5294 23.5607 19.8107C23.2794 20.092 22.8978 20.25 22.5 20.25H13.8103C13.4148 20.2508 13.0352 20.0947 12.7547 19.8159L2.69813 10.0706L2.68969 10.0622C2.4086 9.78092 2.2507 9.39953 2.2507 9.00188C2.2507 8.60422 2.4086 8.22284 2.68969 7.94157L8.68969 1.93032L8.70375 1.91719C8.98619 1.64509 9.36444 1.49519 9.7566 1.49993C10.1488 1.50466 10.5233 1.66366 10.7991 1.9425L11.5688 2.71875C11.8321 2.98243 11.9878 3.33467 12.0056 3.70688C12.1116 5.85188 13.5994 7.29844 15.8784 7.48219C16.2518 7.51428 16.5997 7.68497 16.8535 7.96068C17.1074 8.23638 17.2488 8.59712 17.25 8.97188V11.25C17.25 12.0457 17.5661 12.8087 18.1287 13.3713C18.6913 13.9339 19.4544 14.25 20.25 14.25C21.2446 14.25 22.1984 14.6451 22.9016 15.3484C23.6049 16.0516 24 17.0054 24 18ZM22.5 18C22.5 17.4033 22.2629 16.831 21.841 16.409C21.419 15.9871 20.8467 15.75 20.25 15.75C19.3662 15.7511 18.502 15.4901 17.7666 15H15C14.8011 15 14.6103 14.921 14.4697 14.7803C14.329 14.6397 14.25 14.4489 14.25 14.25C14.25 14.0511 14.329 13.8603 14.4697 13.7197C14.6103 13.579 14.8011 13.5 15 13.5H16.3556C16.0865 13.0366 15.9029 12.5285 15.8137 12H14.25C14.0511 12 13.8603 11.921 13.7197 11.7803C13.579 11.6397 13.5 11.4489 13.5 11.25C13.5 11.0511 13.579 10.8603 13.7197 10.7197C13.8603 10.579 14.0511 10.5 14.25 10.5H15.75V8.97188C14.3034 8.85375 13.0425 8.31563 12.105 7.41563C11.1309 6.47813 10.5788 5.22094 10.5113 3.77532L9.73781 3L3.75 9L13.8019 18.7406L13.8103 18.7481H22.5V18Z" fill="black" fill-opacity="0.2"/>
</g>
</svg>
