<svg width="20" height="20" viewBox="0 0 20 20" fill="none" xmlns="http://www.w3.org/2000/svg">
<g id="ion:footsteps-outline">
<path id="Vector" d="M7.81249 9.64221C8.15663 11.932 7.52616 13.184 5.74569 13.4473C3.76718 13.7399 2.95194 12.4145 2.6078 10.1246C2.14491 7.04338 3.2328 5.12697 4.78397 5.00353C6.19569 4.89143 7.46796 7.35275 7.81249 9.64221ZM8.73632 15.9973C8.85858 17.2973 8.15585 18.5106 7.09569 18.7184C6.02538 18.9278 4.80233 18.0789 4.55312 16.7969C4.3039 15.5149 5.24647 15.4469 6.40155 15.2262C7.55663 15.0055 8.58866 14.4293 8.73632 15.9973ZM12.1875 5.89182C11.8434 8.18166 12.4738 9.43361 14.2539 9.69689C16.2328 9.98947 17.0476 8.66408 17.3918 6.37424C17.8551 3.2926 16.7668 1.36564 15.216 1.25314C13.7941 1.15002 12.532 3.60197 12.1875 5.89182ZM11.2637 12.2473C11.1414 13.5469 11.8441 14.7606 12.9043 14.9684C13.9746 15.1778 15.1976 14.3289 15.4469 13.0469C15.6961 11.7649 14.7535 11.6969 13.5984 11.4758C12.4434 11.2547 11.4113 10.6789 11.2637 12.2473Z" stroke="white" stroke-miterlimit="10"/>
</g>
</svg>
