<svg width="24" height="24" viewBox="0 0 24 24" fill="none" xmlns="http://www.w3.org/2000/svg">
<path fill-rule="evenodd" clip-rule="evenodd" d="M11.943 1.25H12.057C14.366 1.25 16.175 1.25 17.587 1.44C19.031 1.634 20.171 2.04 21.066 2.934C21.961 3.829 22.366 4.969 22.56 6.414C22.75 7.825 22.75 9.634 22.75 11.943V12.057C22.75 14.366 22.75 16.175 22.56 17.587C22.366 19.031 21.96 20.171 21.066 21.066C20.171 21.961 19.031 22.366 17.586 22.56C16.175 22.75 14.366 22.75 12.057 22.75H11.943C9.634 22.75 7.825 22.75 6.413 22.56C4.969 22.366 3.829 21.96 2.934 21.066C2.039 20.171 1.634 19.031 1.44 17.586C1.25 16.175 1.25 14.366 1.25 12.057V11.943C1.25 9.634 1.25 7.825 1.44 6.413C1.634 4.969 2.04 3.829 2.934 2.934C3.829 2.039 4.969 1.634 6.414 1.44C7.825 1.25 9.634 1.25 11.943 1.25ZM6.613 2.926C5.335 3.098 4.564 3.426 3.995 3.995C3.425 4.565 3.098 5.335 2.926 6.614C2.752 7.914 2.75 9.622 2.75 12C2.75 14.378 2.752 16.086 2.926 17.386C3.098 18.665 3.426 19.436 3.995 20.006C4.565 20.575 5.335 20.902 6.614 21.074C7.914 21.248 9.622 21.25 12 21.25C14.378 21.25 16.086 21.248 17.386 21.074C18.665 20.902 19.436 20.574 20.006 20.005C20.575 19.435 20.902 18.665 21.074 17.386C21.248 16.086 21.25 14.378 21.25 12C21.25 9.622 21.248 7.914 21.074 6.614C20.902 5.335 20.574 4.564 20.005 3.994C19.435 3.425 18.665 3.098 17.386 2.926C16.086 2.752 14.378 2.75 12 2.75C9.622 2.75 7.913 2.752 6.613 2.926ZM11.004 6.506C11.069 6.58025 11.1188 6.66661 11.1503 6.76013C11.1819 6.85364 11.1947 6.95247 11.1881 7.05095C11.1814 7.14942 11.1553 7.24561 11.1114 7.334C11.0674 7.42238 11.0065 7.50122 10.932 7.566L9 9.25H17C17.1989 9.25 17.3897 9.32902 17.5303 9.46967C17.671 9.61032 17.75 9.80109 17.75 10C17.75 10.1989 17.671 10.3897 17.5303 10.5303C17.3897 10.671 17.1989 10.75 17 10.75H7C6.84736 10.75 6.69836 10.7033 6.57291 10.6164C6.44747 10.5294 6.35155 10.4062 6.29796 10.2633C6.24438 10.1204 6.23568 9.96448 6.27303 9.81647C6.31038 9.66847 6.39201 9.53539 6.507 9.435L9.944 6.435C10.0182 6.37012 10.1045 6.32052 10.1979 6.28902C10.2914 6.25753 10.3901 6.24476 10.4884 6.25144C10.5868 6.25813 10.6829 6.28414 10.7712 6.328C10.8594 6.37185 10.9382 6.43267 11.003 6.507M15 14.75H7C6.80109 14.75 6.61032 14.671 6.46967 14.5303C6.32902 14.3897 6.25 14.1989 6.25 14C6.25 13.8011 6.32902 13.6103 6.46967 13.4697C6.61032 13.329 6.80109 13.25 7 13.25H17C17.1526 13.25 17.3016 13.2967 17.4271 13.3836C17.5525 13.4706 17.6485 13.5938 17.702 13.7367C17.7556 13.8796 17.7643 14.0355 17.727 14.1835C17.6896 14.3315 17.608 14.4646 17.493 14.565L14.056 17.565C13.9062 17.6959 13.7104 17.7619 13.5119 17.7485C13.3134 17.7351 13.1284 17.6433 12.9975 17.4935C12.8666 17.3437 12.8006 17.1479 12.814 16.9494C12.8274 16.7509 12.9192 16.5659 13.069 16.435L15 14.75Z" fill="#F75A28"/>
</svg>
