<svg width="24" height="24" viewBox="0 0 24 24" fill="none" xmlns="http://www.w3.org/2000/svg">
<path d="M12 17.75C11.8011 17.75 11.6103 17.671 11.4697 17.5303C11.329 17.3897 11.25 17.1989 11.25 17L11.25 11.81L9.53 13.53C9.46134 13.6037 9.37854 13.6628 9.28654 13.7038C9.19454 13.7448 9.09522 13.7668 8.99452 13.7686C8.89382 13.7704 8.79379 13.7518 8.7004 13.7141C8.60701 13.6764 8.52218 13.6203 8.45096 13.549C8.37974 13.4778 8.3236 13.393 8.28588 13.2996C8.24816 13.2062 8.22963 13.1062 8.23141 13.0055C8.23318 12.9048 8.25523 12.8055 8.29622 12.7135C8.33721 12.6215 8.39631 12.5387 8.47 12.47L11.47 9.47C11.6106 9.32955 11.8012 9.25066 12 9.25066C12.1988 9.25066 12.3894 9.32955 12.53 9.47L15.53 12.47C15.6037 12.5387 15.6628 12.6215 15.7038 12.7135C15.7448 12.8055 15.7668 12.9048 15.7686 13.0055C15.7704 13.1062 15.7518 13.2062 15.7141 13.2996C15.6764 13.393 15.6203 13.4778 15.549 13.549C15.4778 13.6203 15.393 13.6764 15.2996 13.7141C15.2062 13.7518 15.1062 13.7704 15.0055 13.7686C14.9048 13.7668 14.8055 13.7448 14.7135 13.7038C14.6215 13.6628 14.5387 13.6037 14.47 13.53L12.75 11.81L12.75 17C12.75 17.1989 12.671 17.3897 12.5303 17.5303C12.3897 17.671 12.1989 17.75 12 17.75ZM16.75 7C16.75 7.19891 16.671 7.38968 16.5303 7.53033C16.3897 7.67098 16.1989 7.75 16 7.75L8 7.75C7.80109 7.75 7.61032 7.67098 7.46967 7.53033C7.32902 7.38968 7.25 7.19891 7.25 7C7.25 6.80109 7.32902 6.61032 7.46967 6.46967C7.61032 6.32902 7.80109 6.25 8 6.25L16 6.25C16.1989 6.25 16.3897 6.32902 16.5303 6.46967C16.671 6.61032 16.75 6.80109 16.75 7Z" fill="#F75A28"/>
<path fill-rule="evenodd" clip-rule="evenodd" d="M12.057 22.75C14.366 22.75 16.175 22.75 17.587 22.56C19.031 22.366 20.171 21.96 21.066 21.066C21.961 20.171 22.366 19.031 22.56 17.586C22.75 16.175 22.75 14.366 22.75 12.057V11.943C22.75 9.634 22.75 7.825 22.56 6.413C22.366 4.969 21.96 3.829 21.066 2.934C20.171 2.039 19.031 1.634 17.586 1.44C16.175 1.25 14.366 1.25 12.057 1.25H11.943C9.634 1.25 7.825 1.25 6.413 1.44C4.969 1.634 3.829 2.04 2.934 2.934C2.039 3.829 1.634 4.969 1.44 6.414C1.25 7.825 1.25 9.634 1.25 11.943V12.057C1.25 14.366 1.25 16.175 1.44 17.587C1.634 19.031 2.04 20.171 2.934 21.066C3.829 21.961 4.969 22.366 6.414 22.56C7.825 22.75 9.634 22.75 11.943 22.75H12.057ZM20.005 20.005C19.435 20.575 18.665 20.902 17.386 21.074C16.086 21.248 14.378 21.25 12 21.25C9.622 21.25 7.914 21.248 6.614 21.074C5.335 20.902 4.564 20.574 3.994 20.005C3.425 19.435 3.098 18.665 2.926 17.386C2.752 16.086 2.75 14.378 2.75 12C2.75 9.622 2.752 7.914 2.926 6.614C3.098 5.335 3.426 4.564 3.995 3.994C4.565 3.425 5.335 3.098 6.614 2.926C7.914 2.752 9.622 2.75 12 2.75C14.378 2.75 16.086 2.752 17.386 2.926C18.665 3.098 19.436 3.426 20.006 3.995C20.575 4.565 20.902 5.335 21.074 6.614C21.248 7.914 21.25 9.622 21.25 12C21.25 14.378 21.248 16.086 21.074 17.386C20.902 18.665 20.574 19.435 20.005 20.005Z" fill="#F75A28"/>
</svg>
