<svg width="30" height="30" viewBox="0 0 30 30" fill="none" xmlns="http://www.w3.org/2000/svg">
<g clip-path="url(#clip0_346_1273)">
<path d="M15 30C23.2843 30 30 23.2843 30 15C30 6.71573 23.2843 0 15 0C6.71573 0 0 6.71573 0 15C0 23.2843 6.71573 30 15 30Z" fill="#3E73C4"/>
<path d="M18.7705 16.9912C18.7705 15 17.5705 14.3175 15.1705 14.0325C13.4567 13.8047 13.1145 13.35 13.1145 12.5531C13.1145 11.7562 13.6864 11.2444 14.8283 11.2444C15.8567 11.2444 16.4286 11.5856 16.7136 12.4397C16.7433 12.5223 16.7976 12.5938 16.8692 12.6446C16.9407 12.6953 17.0261 12.723 17.1139 12.7237H18.028C18.0808 12.7251 18.1333 12.7158 18.1824 12.6963C18.2315 12.6768 18.2761 12.6476 18.3135 12.6103C18.3509 12.573 18.3804 12.5286 18.4001 12.4796C18.4199 12.4306 18.4294 12.3781 18.4283 12.3253V12.2691C18.3166 11.6511 18.0039 11.0874 17.5389 10.6655C17.0739 10.2435 16.4825 9.98694 15.8567 9.93561V8.57062C15.8567 8.3428 15.6852 8.17218 15.4002 8.11499H14.5423C14.3145 8.11499 14.143 8.28562 14.0858 8.57062V9.87937C12.3711 10.1062 11.2864 11.2444 11.2864 12.6675C11.2864 14.5444 12.4283 15.2841 14.8283 15.5691C16.4286 15.8531 16.9423 16.1953 16.9423 17.1056C16.9423 18.015 16.1427 18.6412 15.057 18.6412C13.5711 18.6412 13.0573 18.0159 12.8858 17.1619C12.8295 16.935 12.657 16.8206 12.4855 16.8206H11.5142C11.4615 16.8193 11.4091 16.8288 11.3601 16.8483C11.3111 16.8679 11.2666 16.8972 11.2293 16.9344C11.192 16.9716 11.1626 17.0161 11.1429 17.065C11.1232 17.1139 11.1137 17.1663 11.1148 17.2191V17.2753C11.3427 18.6984 12.2577 19.7222 14.143 20.0072V21.3731C14.143 21.6 14.3145 21.7716 14.5995 21.8278H15.4573C15.6852 21.8278 15.8567 21.6572 15.9139 21.3731V20.0062C17.6286 19.7222 18.7705 18.5269 18.7705 16.9903V16.9912Z" fill="white"/>
<path d="M12.0861 22.9659C7.62922 21.3722 5.34359 16.4222 7.00109 12.0412C7.85797 9.65062 9.74328 7.83094 12.0861 6.97687C12.3148 6.86344 12.4283 6.69281 12.4283 6.40781V5.61094C12.4283 5.38406 12.3148 5.21344 12.0861 5.15625C12.0289 5.15625 11.9145 5.15625 11.8573 5.2125C10.5715 5.61405 9.37778 6.266 8.34492 7.13079C7.31207 7.99558 6.46048 9.05614 5.8392 10.2514C5.21791 11.4467 4.83919 12.753 4.72485 14.0952C4.61051 15.4375 4.7628 16.7891 5.17297 18.0722C6.20047 21.2597 8.65765 23.7066 11.8573 24.7303C12.0861 24.8438 12.3148 24.7303 12.3711 24.5025C12.4283 24.4462 12.4283 24.3881 12.4283 24.2747V23.4778C12.4283 23.3072 12.2577 23.0803 12.0861 22.9659ZM18.1423 5.21344C17.9136 5.09906 17.6848 5.21344 17.6286 5.44031C17.5714 5.4975 17.5714 5.55469 17.5714 5.66813V6.465C17.5714 6.69281 17.742 6.91969 17.9136 7.03406C22.3705 8.62781 24.6561 13.5778 22.9986 17.9587C22.1417 20.3494 20.2564 22.1691 17.9136 23.0231C17.6848 23.1366 17.5714 23.3072 17.5714 23.5922V24.3891C17.5714 24.6159 17.6848 24.7866 17.9136 24.8438C17.9708 24.8438 18.0852 24.8438 18.1423 24.7875C19.4282 24.3859 20.6219 23.734 21.6548 22.8692C22.6876 22.0044 23.5392 20.9439 24.1605 19.7486C24.7818 18.5533 25.1605 17.247 25.2748 15.9048C25.3892 14.5625 25.2369 13.2109 24.8267 11.9278C23.7992 8.68406 21.2848 6.23719 18.1423 5.21344Z" fill="white"/>
</g>
<defs>
<clipPath id="clip0_346_1273">
<rect width="30" height="30" fill="white"/>
</clipPath>
</defs>
</svg>
