<svg width="50" height="50" viewBox="0 0 50 50" fill="none" xmlns="http://www.w3.org/2000/svg">
<path d="M24.9998 13.0208C25.4142 13.0208 25.8117 13.1854 26.1047 13.4784C26.3977 13.7714 26.5623 14.1689 26.5623 14.5833V27.0833C26.5623 27.4977 26.3977 27.8951 26.1047 28.1881C25.8117 28.4811 25.4142 28.6458 24.9998 28.6458C24.5854 28.6458 24.188 28.4811 23.895 28.1881C23.602 27.8951 23.4373 27.4977 23.4373 27.0833V14.5833C23.4373 14.1689 23.602 13.7714 23.895 13.4784C24.188 13.1854 24.5854 13.0208 24.9998 13.0208ZM24.9998 35.4166C25.5524 35.4166 26.0823 35.1971 26.473 34.8064C26.8637 34.4157 27.0832 33.8858 27.0832 33.3333C27.0832 32.7807 26.8637 32.2508 26.473 31.8601C26.0823 31.4694 25.5524 31.2499 24.9998 31.2499C24.4473 31.2499 23.9174 31.4694 23.5267 31.8601C23.136 32.2508 22.9165 32.7807 22.9165 33.3333C22.9165 33.8858 23.136 34.4157 23.5267 34.8064C23.9174 35.1971 24.4473 35.4166 24.9998 35.4166Z" fill="#F75A28"/>
<path fill-rule="evenodd" clip-rule="evenodd" d="M2.604 25.0001C2.604 12.6313 12.6311 2.60425 24.9998 2.60425C37.3686 2.60425 47.3957 12.6313 47.3957 25.0001C47.3957 37.3688 37.3686 47.3959 24.9998 47.3959C12.6311 47.3959 2.604 37.3688 2.604 25.0001ZM24.9998 5.72925C19.8889 5.72925 14.9873 7.75956 11.3733 11.3735C7.75932 14.9875 5.729 19.8891 5.729 25.0001C5.729 30.111 7.75932 35.0126 11.3733 38.6266C14.9873 42.2406 19.8889 44.2709 24.9998 44.2709C30.1108 44.2709 35.0124 42.2406 38.6264 38.6266C42.2404 35.0126 44.2707 30.111 44.2707 25.0001C44.2707 19.8891 42.2404 14.9875 38.6264 11.3735C35.0124 7.75956 30.1108 5.72925 24.9998 5.72925Z" fill="#F75A28"/>
</svg>
